<svg xmlns="http://www.w3.org/2000/svg" version="1.1" xmlnsXlink="http://www.w3.org/1999/xlink" xmlnsSvgjs="http://svgjs.dev/svgjs" width="1000" height="1000" viewBox="0 0 1000 1000"><g transform="matrix(1,0,0,1,0,0)"><svg viewBox="0 0 280 280" data-background-color="#ffffff" preserveAspectRatio="xMidYMid meet" height="1000" width="1000" xmlns="http://www.w3.org/2000/svg" xmlnsXlink="http://www.w3.org/1999/xlink"><g id="tight-bounds" transform="matrix(1,0,0,1,0,0)"><svg viewBox="0 0 280 280" height="280" width="280"><g><svg viewBox="0 0 280 280" height="280" width="280"><g><svg viewBox="0 0 280 280" height="280" width="280"><g id="textblocktransform"><svg viewBox="0 0 280 280" height="280" width="280" id="textblock"><g><svg viewBox="0 0 280 280" height="280" width="280"><g transform="matrix(1,0,0,1,74.00336708925556,87.59496419123698)"><svg viewBox="0 0 131.99326582148888 104.81007161752603" height="104.81007161752603" width="131.99326582148888"><g><svg xmlns="http://www.w3.org/2000/svg" xmlnsXlink="http://www.w3.org/1999/xlink" version="1.1" x="0" y="0" viewBox="2.635999999999997 11.36 84.727 67.278" enable-background="new 0 0 90 90" xmlSpace="preserve" height="104.81007161752603" width="131.99326582148888" class="icon-kg-0" data-fill-palette-color="accent" id="kg-0"><path d="M65.488 65.37c-0.571 0.471-1.272 0.724-1.988 0.741-0.424 0.009-0.85-0.063-1.255-0.223-0.492-0.195-0.905-0.517-1.24-0.899-3.28 4.264-7.92 7.411-13.282 8.8 2.99-2.082 5.463-5.671 7.121-10.209h5.453c-0.021-0.096-0.063-0.182-0.074-0.279l-0.285-2.165H55.63c0.841-2.991 1.343-6.308 1.438-9.836h1.574l-0.322-2.444h-1.252c-0.045-1.637-0.187-3.225-0.396-4.757-0.779 0.217-1.588 0.431-2.39 0.645 0.174 1.336 0.302 2.7 0.344 4.112h-8.61L45.52 51.3h9.105c-0.104 3.541-0.639 6.884-1.537 9.836H42.795v-5.401l-1.252 0.875c-0.363 0.257-0.772 0.399-1.192 0.486v4.04H30.058c-0.439-1.446-0.79-2.989-1.047-4.6-0.267 0.108-0.542 0.217-0.804 0.329-0.524 0.223-0.992 0.445-1.49 0.668 0.219 1.238 0.477 2.451 0.798 3.603h-7.807v-0.002c-0.703 0.429-1.374 0.857-1.996 1.292-0.491 0.346-0.938 0.686-1.361 1.023 4.805 9.025 14.303 15.189 25.221 15.189 10.239 0 19.208-5.433 24.25-13.549L65.488 65.37zM21.114 63.58h7.188c1.661 4.538 4.13 8.127 7.121 10.209C29.482 72.252 24.412 68.564 21.114 63.58zM40.351 73.266c-3.883-0.645-7.27-4.322-9.421-9.686h9.421V73.266zM42.795 63.58h9.421c-2.149 5.361-5.54 9.041-9.421 9.686V63.58z" fill="#24a8df" data-fill-palette-color="accent"></path><path d="M87.363 24.459c-3.995-2.627-12.348-0.773-21.615 2.803L49.466 11.36l-5.485 0.188L57.07 30.955c-5.385 2.476-10.719 5.232-15.396 7.779l-6.756-5.102-2.806 0.327 6.977 8.789 0.601 11.208 2.317-1.617 1.677-8.297c5.19-1.188 11.015-2.66 16.687-4.372l3.053 23.206 4.232-3.495 1.654-22.695C78.628 33.219 86.111 29.072 87.363 24.459z" fill="#24a8df" data-fill-palette-color="accent"></path><path d="M48.527 24.071l-1.348-1.999c-1.819-0.362-3.688-0.56-5.61-0.56-14.262 0-26.082 10.519-28.192 24.199 1.755-1.324 3.46-2.488 5.021-3.501 0.37-1.097 0.789-2.173 1.308-3.194h3.933c1.418-0.817 2.874-1.633 4.406-2.444h-6.933c3.296-4.984 8.368-8.671 14.31-10.209-1.592 1.11-3.032 2.657-4.287 4.538 0.197-0.063 0.393-0.13 0.604-0.153l2.806-0.327c0.017-0.001 0.037 0 0.052-0.001 1.697-1.917 3.647-3.184 5.752-3.532v6.794l1.615 1.221c0.282-0.151 0.549-0.284 0.829-0.435v-7.58c2.373 0.393 4.56 1.933 6.396 4.285l3.166-1.505L48.527 24.071z" fill="#24a8df" data-fill-palette-color="accent"></path><path d="M35.919 43.951l-4.397-5.538c-2.987 1.531-6.322 3.345-9.807 5.517-3.892 2.446-7.978 5.27-11.725 8.869-1.86 1.813-3.648 3.828-5.098 6.258-0.717 1.217-1.339 2.549-1.767 3.991-0.115 0.353-0.192 0.733-0.28 1.101-0.047 0.183-0.069 0.375-0.104 0.563l-0.102 0.681-0.003 0.832 0.023 1.226c0.107 1.477 0.501 3.049 1.285 4.42 0.766 1.383 1.916 2.446 3.06 3.128 2.327 1.363 4.509 1.586 6.388 1.697 3.773 0.115 6.669-0.5 8.695-0.902 0.631-0.134 1.162-0.256 1.612-0.361-5.88-0.309-9.543-1.719-11.51-2.787-0.562-0.285-1.083-0.605-1.528-0.977-0.205-0.159-0.317-0.263-0.317-0.263l0.038-0.003c-0.121-0.115-0.262-0.223-0.364-0.346-0.886-1.059-0.909-2.021-0.595-3.401 0.054-0.142 0.101-0.271 0.14-0.405l0.239-0.799 0.008-0.023c0.022-0.125-0.022 0.141-0.016 0.106l0.013-0.028 0.022-0.063 0.044-0.121c0.033-0.079 0.051-0.159 0.092-0.242 0.079-0.163 0.133-0.326 0.228-0.491 0.332-0.663 0.786-1.338 1.348-2.008 1.127-1.343 2.652-2.629 4.323-3.804 3.372-2.351 7.309-4.276 11.085-5.885 3.284-1.394 6.455-2.523 9.317-3.473L35.919 43.951z" fill="#24a8df" data-fill-palette-color="accent"></path></svg></g></svg></g><g><path d="M25.55 108.254l1.447-4.756-1.508-0.459-0.965 3.171-11.443-3.484 1.365-4.484-1.546-0.471-1.365 4.485-9.434-2.872-0.482 1.585 9.433 2.872-1.024 3.363 1.547 0.471 1.024-3.364z" fill="#0718c4" data-fill-palette-color="primary"></path><path d="M37.663 81.037l4.269-6.528-1.319-0.862-1.637 2.502-5.614-3.672c-0.699-0.457-1.251-1.028-1.657-1.711-0.406-0.684-0.631-1.41-0.675-2.18v0c-0.088-0.702-0.044-1.421 0.132-2.159 0.177-0.738 0.486-1.445 0.929-2.121v0l-1.342-0.974c-0.317 0.533-0.562 1.105-0.736 1.716-0.174 0.611-0.269 1.248-0.286 1.913v0c-0.031 0.688 0.044 1.373 0.225 2.055 0.182 0.682 0.473 1.332 0.875 1.948v0c-0.398-0.228-0.653-0.379-0.766-0.453-0.113-0.074-0.368-0.225-0.766-0.452v0l-1.859-1.071-2.323 3.551 1.319 0.862 1.593-2.435 10.044 6.57-1.725 2.638z" fill="#0718c4" data-fill-palette-color="primary"></path><path d="M70.678 45.686l3.511-2.793-0.981-1.233-2.341 1.862-8.452-10.627-1.044 0.83c0.327 0.497 0.668 0.992 1.024 1.483 0.356 0.491 0.711 0.958 1.063 1.401v0c-1.012-0.537-2.201-0.754-3.564-0.651-1.364 0.103-2.667 0.65-3.911 1.64v0c-0.886 0.704-1.573 1.518-2.061 2.44-0.489 0.922-0.799 1.884-0.933 2.885v0c-0.116 1.022-0.031 2.038 0.257 3.049 0.287 1.011 0.758 1.927 1.412 2.749v0c0.688 0.864 1.483 1.54 2.386 2.026 0.903 0.486 1.866 0.788 2.888 0.905v0c1.022 0.116 2.033 0.035 3.034-0.244 1-0.279 1.943-0.771 2.828-1.476v0c0.633-0.503 1.161-1.061 1.586-1.674 0.425-0.613 0.741-1.243 0.948-1.891v0c0.204-0.61 0.32-1.21 0.349-1.801 0.029-0.591-0.034-1.135-0.187-1.632v0c0.218 0.274 0.415 0.522 0.591 0.744 0.176 0.221 0.365 0.459 0.566 0.711v0zM56.989 38.863v0c0.675-0.537 1.404-0.919 2.187-1.146 0.783-0.227 1.583-0.304 2.399-0.23v0c0.795 0.091 1.563 0.332 2.305 0.723 0.742 0.391 1.389 0.935 1.942 1.631v0c0.553 0.696 0.937 1.449 1.152 2.259 0.214 0.811 0.266 1.622 0.154 2.434v0c-0.091 0.795-0.335 1.548-0.732 2.26-0.398 0.712-0.934 1.336-1.608 1.873v0c-0.675 0.537-1.389 0.915-2.143 1.137-0.754 0.221-1.52 0.297-2.298 0.227v0c-0.837-0.057-1.636-0.282-2.396-0.676-0.76-0.393-1.426-0.949-1.996-1.665v0c-0.537-0.675-0.919-1.404-1.146-2.187-0.227-0.783-0.295-1.572-0.205-2.368v0c0.053-0.799 0.284-1.569 0.695-2.308 0.41-0.739 0.974-1.394 1.69-1.964z" fill="#0718c4" data-fill-palette-color="primary"></path><path d="M107.497 13.932v0l2.807-0.911-0.487-1.499-6.727 2.183 0.487 1.499 2.268-0.736c-0.341 2.178-0.686 4.344-1.036 6.497-0.349 2.153-0.63 4.212-0.842 6.178v0c-1.436-1.545-2.91-3.078-4.423-4.597-1.513-1.52-3.039-3.036-4.578-4.548v0l2.537-0.823-0.486-1.499-7.111 2.307 0.486 1.499 2.96-0.96c1.935 1.949 3.863 3.873 5.781 5.771 1.919 1.898 3.842 3.809 5.769 5.733v0c0.43-2.689 0.865-5.365 1.304-8.028 0.439-2.663 0.869-5.352 1.291-8.066z" fill="#0718c4" data-fill-palette-color="primary"></path><path d="M145.731 9.822v0c1.05 0.03 1.991 0.347 2.823 0.95 0.832 0.603 1.477 1.37 1.935 2.3v0c-1.852 0.675-3.697 1.343-5.535 2.004-1.838 0.661-3.683 1.329-5.536 2.004v0c-0.162-0.921-0.123-1.816 0.118-2.685 0.241-0.869 0.64-1.646 1.199-2.331v0c0.586-0.711 1.31-1.27 2.17-1.676 0.861-0.407 1.803-0.595 2.826-0.566zM150.677 22.012v0l-0.975-1.241c-0.581 0.522-1.239 0.921-1.975 1.196-0.736 0.275-1.521 0.401-2.355 0.377v0c-1.266-0.036-2.388-0.392-3.366-1.066-0.978-0.675-1.694-1.544-2.148-2.609v0c2.125-0.801 4.243-1.576 6.353-2.324 2.11-0.748 4.228-1.509 6.352-2.284v0c-0.246-0.816-0.575-1.573-0.986-2.272-0.411-0.699-0.893-1.299-1.444-1.8v0c-0.577-0.556-1.238-0.986-1.984-1.29-0.746-0.304-1.536-0.469-2.371-0.493v0c-1.104-0.032-2.14 0.147-3.109 0.538-0.968 0.39-1.826 0.925-2.572 1.604v0c-0.747 0.679-1.337 1.498-1.769 2.455-0.432 0.958-0.663 1.975-0.694 3.053v0c-0.032 1.104 0.141 2.133 0.518 3.087 0.377 0.954 0.918 1.805 1.625 2.554v0c0.706 0.748 1.532 1.338 2.476 1.769 0.944 0.431 1.969 0.663 3.072 0.694v0c1.05 0.03 2.025-0.131 2.925-0.482 0.9-0.352 1.709-0.84 2.427-1.466z" fill="#0718c4" data-fill-palette-color="primary"></path><path d="M175.345 28.726l7.403 2.458 0.496-1.496-2.991-0.993 9.054-27.269-4.295-1.426-0.497 1.496 2.723 0.904-8.558 25.773-2.838-0.942z" fill="#0718c4" data-fill-palette-color="primary"></path><path d="M203.869 41.858l6.509 4.297 0.868-1.316-2.63-1.736 15.83-23.979-3.777-2.493-0.868 1.315 2.394 1.581-14.962 22.663-2.495-1.648z" fill="#0718c4" data-fill-palette-color="primary"></path><path d="M238.076 71.023v0c1.007 0.075 2.007-0.027 3-0.308 0.992-0.28 1.914-0.773 2.764-1.477v0c0.83-0.688 1.485-1.502 1.965-2.442 0.48-0.94 0.777-1.912 0.891-2.916v0c0.075-1.007-0.04-2.022-0.347-3.046-0.306-1.024-0.811-1.961-1.516-2.811v0c-0.705-0.85-1.527-1.516-2.468-1.997-0.94-0.48-1.904-0.767-2.89-0.859v0c-1.024-0.096-2.039 0.01-3.043 0.318-1.005 0.308-1.922 0.805-2.751 1.493v0c-0.85 0.705-1.515 1.518-1.994 2.439-0.479 0.921-0.755 1.886-0.831 2.893v0c-0.113 1.003-0.02 2.002 0.279 2.997 0.299 0.994 0.81 1.927 1.532 2.798v0c0.705 0.85 1.527 1.525 2.465 2.025 0.939 0.499 1.92 0.797 2.944 0.893zM232.507 62.465v0c0.054-0.779 0.268-1.534 0.642-2.265 0.375-0.73 0.904-1.379 1.589-1.946v0c0.664-0.55 1.389-0.941 2.176-1.174 0.787-0.232 1.589-0.32 2.407-0.262v0c0.797 0.075 1.56 0.299 2.29 0.673 0.73 0.375 1.37 0.894 1.921 1.558v0c0.55 0.664 0.946 1.394 1.186 2.192 0.241 0.797 0.324 1.595 0.25 2.391v0c-0.078 0.835-0.305 1.617-0.679 2.347-0.375 0.73-0.894 1.37-1.558 1.921v0c-0.685 0.567-1.42 0.967-2.207 1.199-0.787 0.232-1.577 0.292-2.37 0.18v0c-0.817-0.057-1.595-0.279-2.335-0.663-0.739-0.385-1.383-0.909-1.933-1.574v0c-0.55-0.664-0.941-1.389-1.174-2.176-0.232-0.787-0.301-1.588-0.205-2.401z" fill="#0718c4" data-fill-palette-color="primary"></path><path d="M244.3 99.474l-1.657-0.638c-0.421 0.959-0.649 1.998-0.681 3.116-0.033 1.118 0.174 2.283 0.622 3.496v0c0.398 1.002 0.954 1.866 1.667 2.594 0.713 0.728 1.545 1.289 2.495 1.686v0c0.925 0.406 1.956 0.614 3.095 0.625 1.138 0.011 2.339-0.217 3.603-0.683v0l14.029-5.173 1.034 2.806 1.479-0.546-1.496-4.057c-0.6 0.164-1.176 0.333-1.729 0.509-0.553 0.175-1.107 0.365-1.663 0.57v0c0.843-0.828 1.418-1.916 1.725-3.263 0.307-1.348 0.199-2.73-0.323-4.146v0c-0.391-1.062-0.949-1.969-1.671-2.721-0.723-0.753-1.538-1.349-2.447-1.79v0c-0.934-0.431-1.926-0.668-2.976-0.711-1.05-0.044-2.068 0.116-3.054 0.479v0c-1.036 0.382-1.927 0.926-2.672 1.632-0.745 0.705-1.32 1.521-1.725 2.445v0c-0.431 0.934-0.677 1.922-0.738 2.964-0.061 1.042 0.104 2.094 0.496 3.155v0c0.27 0.733 0.621 1.393 1.054 1.981 0.432 0.587 0.923 1.081 1.472 1.481v0c0.48 0.368 0.99 0.661 1.53 0.879 0.54 0.217 1.082 0.326 1.628 0.326v0c-0.329 0.121-0.647 0.231-0.955 0.33-0.308 0.099-0.588 0.195-0.841 0.289v0l-2.655 0.979c-0.986 0.364-1.945 0.545-2.878 0.544-0.933 0-1.784-0.146-2.552-0.437v0c-0.802-0.307-1.49-0.75-2.062-1.329-0.572-0.579-1.003-1.26-1.292-2.043v0c-0.336-0.91-0.487-1.845-0.453-2.805 0.034-0.96 0.231-1.808 0.591-2.544zM264.984 96.93v0c0.289 0.784 0.425 1.581 0.408 2.391-0.017 0.81-0.18 1.574-0.491 2.291v0c-0.351 0.761-0.832 1.441-1.444 2.04-0.612 0.599-1.335 1.052-2.169 1.36v0c-0.834 0.308-1.661 0.44-2.481 0.398-0.82-0.042-1.58-0.236-2.281-0.581v0c-0.727-0.335-1.381-0.805-1.962-1.408-0.582-0.604-1.026-1.323-1.334-2.157v0c-0.308-0.834-0.447-1.659-0.417-2.474 0.03-0.815 0.212-1.586 0.547-2.312v0c0.335-0.727 0.805-1.381 1.409-1.962 0.604-0.582 1.323-1.026 2.157-1.334v0c0.809-0.298 1.614-0.43 2.416-0.396 0.802 0.034 1.567 0.219 2.294 0.554v0c0.743 0.3 1.407 0.759 1.993 1.376 0.586 0.617 1.038 1.355 1.355 2.214z" fill="#0718c4" data-fill-palette-color="primary"></path><path d="M10.658 184.402l1.565 5.089 1.612-0.496-1.042-3.389 12.255-3.768 1.475 4.8 1.652-0.508-1.476-4.8 10.101-3.105-0.522-1.7-10.101 3.106-1.108-3.602-1.651 0.508 1.107 3.602z" fill="#0718c4" data-fill-palette-color="primary"></path><path d="M24.352 214.98l4.571 6.995 1.412-0.923-1.752-2.681 6.022-3.935c0.744-0.486 1.541-0.782 2.39-0.886 0.845-0.11 1.653-0.018 2.424 0.275v0c0.728 0.216 1.416 0.567 2.064 1.053 0.651 0.492 1.213 1.098 1.684 1.82v0l1.53-0.891c-0.387-0.543-0.842-1.031-1.365-1.461-0.523-0.431-1.108-0.797-1.756-1.098v0c-0.66-0.333-1.365-0.556-2.115-0.67-0.744-0.117-1.508-0.109-2.289 0.024v0c0.397-0.291 0.657-0.478 0.781-0.559 0.118-0.077 0.376-0.262 0.773-0.553v0l1.848-1.365-2.487-3.806-1.412 0.923 1.702 2.605-10.766 7.035-1.846-2.824z" fill="#0718c4" data-fill-palette-color="primary"></path><path d="M61.181 254.487l3.76 2.998 1.052-1.32-2.504-1.996 9.068-11.376-1.122-0.894c-0.437 0.461-0.872 0.937-1.305 1.427-0.424 0.489-0.825 0.97-1.203 1.444v0c0.317-1.186 0.257-2.478-0.179-3.876-0.436-1.398-1.32-2.628-2.652-3.691v0c-0.948-0.756-1.961-1.279-3.039-1.57-1.078-0.291-2.157-0.384-3.238-0.281v0c-1.093 0.128-2.133 0.461-3.122 0.999-0.984 0.542-1.826 1.253-2.527 2.133v0c-0.739 0.927-1.255 1.92-1.548 2.979-0.287 1.063-0.372 2.141-0.253 3.235v0c0.128 1.093 0.456 2.129 0.984 3.109 0.532 0.975 1.272 1.841 2.219 2.597v0c0.679 0.542 1.388 0.96 2.126 1.255 0.747 0.294 1.484 0.472 2.21 0.534v0c0.684 0.071 1.338 0.05 1.963-0.063 0.625-0.114 1.178-0.31 1.659-0.59v0c-0.235 0.295-0.447 0.561-0.636 0.798-0.189 0.237-0.39 0.49-0.605 0.758v0zM65.019 238.554v0c0.722 0.575 1.295 1.244 1.722 2.005 0.422 0.767 0.694 1.587 0.816 2.46v0c0.096 0.852 0.028 1.71-0.205 2.576-0.228 0.869-0.638 1.675-1.23 2.417v0c-0.596 0.748-1.293 1.33-2.089 1.746-0.791 0.42-1.626 0.668-2.504 0.743v0c-0.852 0.096-1.697 0.021-2.534-0.225-0.842-0.24-1.624-0.648-2.346-1.223v0c-0.722-0.575-1.287-1.233-1.696-1.973-0.408-0.73-0.671-1.508-0.788-2.333v0c-0.144-0.89-0.1-1.781 0.129-2.675 0.231-0.884 0.653-1.71 1.266-2.479v0c0.575-0.722 1.244-1.295 2.006-1.722 0.762-0.426 1.569-0.687 2.42-0.784v0c0.848-0.134 1.707-0.078 2.579 0.169 0.872 0.256 1.69 0.689 2.454 1.298z" fill="#0718c4" data-fill-palette-color="primary"></path><path d="M112.086 262.139v0l3.009 0.973 0.519-1.605-7.21-2.331-0.519 1.605 2.432 0.787c-1.667 1.676-3.327 3.338-4.977 4.984-1.659 1.651-3.196 3.263-4.611 4.837v0c-0.28-2.242-0.599-4.497-0.956-6.764-0.355-2.274-0.727-4.549-1.116-6.827v0l2.72 0.879 0.519-1.605-7.623-2.465-0.519 1.606 3.172 1.025c0.454 2.908 0.918 5.786 1.392 8.636 0.471 2.856 0.941 5.726 1.41 8.611v0c2.062-2.066 4.12-4.118 6.174-6.158 2.052-2.034 4.113-4.096 6.184-6.188z" fill="#0718c4" data-fill-palette-color="primary"></path><path d="M145.74 264.848v0c1.124-0.035 2.15 0.244 3.078 0.835 0.928 0.591 1.666 1.371 2.215 2.338v0c-1.935 0.841-3.864 1.672-5.786 2.493-1.929 0.827-3.861 1.662-5.795 2.503v0c-0.232-0.977-0.248-1.936-0.049-2.88 0.2-0.95 0.578-1.807 1.134-2.572v0c0.582-0.8 1.32-1.442 2.215-1.927 0.895-0.492 1.89-0.756 2.988-0.79zM151.802 277.569v0l-1.121-1.259c-0.588 0.591-1.265 1.056-2.029 1.397-0.771 0.347-1.604 0.534-2.499 0.562v0c-1.353 0.042-2.576-0.268-3.668-0.929-1.092-0.66-1.914-1.545-2.467-2.653v0c2.227-0.992 4.445-1.956 6.653-2.893 2.208-0.937 4.423-1.885 6.645-2.843v0c-0.316-0.86-0.714-1.649-1.195-2.368-0.487-0.726-1.042-1.339-1.664-1.839v0c-0.65-0.553-1.384-0.968-2.201-1.247-0.817-0.278-1.673-0.403-2.569-0.376v0c-1.185 0.036-2.282 0.293-3.292 0.769-1.01 0.476-1.893 1.103-2.651 1.88v0c-0.751 0.771-1.33 1.685-1.735 2.742-0.399 1.05-0.581 2.151-0.545 3.302v0c0.036 1.185 0.286 2.276 0.747 3.272 0.469 0.996 1.102 1.873 1.901 2.631v0c0.805 0.75 1.725 1.328 2.762 1.734 1.037 0.399 2.147 0.581 3.332 0.544v0c1.124-0.035 2.158-0.269 3.102-0.701 0.937-0.433 1.768-1.008 2.494-1.725z" fill="#0718c4" data-fill-palette-color="primary"></path><path d="M180.047 273.969l7.931-2.628-0.531-1.602-3.203 1.062-9.684-29.221-4.603 1.526 0.53 1.601 2.916-0.966 9.153 27.619-3.04 1.008z" fill="#0718c4" data-fill-palette-color="primary"></path><path d="M211.763 259.438l6.997-4.566-0.923-1.413-2.825 1.844-16.826-25.778-4.061 2.65 0.922 1.413 2.572-1.679 15.904 24.366-2.682 1.751z" fill="#0718c4" data-fill-palette-color="primary"></path><path d="M246.634 224.451v0c-0.116-1.075-0.418-2.108-0.905-3.099-0.482-0.996-1.177-1.875-2.084-2.639v0c-0.881-0.742-1.864-1.274-2.948-1.596-1.085-0.332-2.164-0.462-3.238-0.388v0c-1.08 0.112-2.131 0.429-3.152 0.952-1.022 0.513-1.914 1.223-2.678 2.13v0c-0.759 0.902-1.302 1.897-1.629 2.987-0.328 1.08-0.444 2.149-0.348 3.206v0c0.089 1.097 0.395 2.146 0.916 3.148 0.512 1.003 1.208 1.875 2.089 2.617v0c0.907 0.763 1.893 1.307 2.959 1.631 1.061 0.329 2.131 0.438 3.211 0.326v0c1.074-0.073 2.108-0.36 3.102-0.862 0.989-0.506 1.874-1.222 2.655-2.15v0c0.763-0.907 1.318-1.901 1.665-2.982 0.346-1.091 0.474-2.185 0.385-3.281zM238.668 231.954v0c-0.828 0.095-1.664 0.016-2.509-0.236-0.84-0.258-1.625-0.694-2.357-1.31v0c-0.706-0.594-1.258-1.283-1.654-2.066-0.393-0.788-0.636-1.618-0.731-2.49v0c-0.073-0.854 0.016-1.703 0.269-2.547 0.258-0.84 0.684-1.612 1.278-2.318v0c0.594-0.706 1.287-1.263 2.079-1.67 0.797-0.403 1.623-0.641 2.477-0.715v0c0.896-0.082 1.764 0.006 2.604 0.264 0.844 0.252 1.619 0.676 2.324 1.27v0c0.732 0.616 1.294 1.318 1.687 2.106 0.397 0.783 0.609 1.604 0.635 2.462v0c0.099 0.876 0.016 1.739-0.251 2.589-0.261 0.854-0.689 1.634-1.283 2.34v0c-0.594 0.706-1.285 1.255-2.074 1.648-0.783 0.397-1.615 0.622-2.494 0.673z" fill="#0718c4" data-fill-palette-color="primary"></path><path d="M270.969 199.494l0.897 1.687c1.016-0.481 1.928-1.163 2.736-2.046 0.808-0.883 1.456-1.974 1.945-3.273v0c0.381-1.087 0.539-2.176 0.474-3.265-0.071-1.092-0.352-2.133-0.842-3.124v0c-0.461-0.973-1.152-1.862-2.072-2.67-0.911-0.811-2.041-1.47-3.39-1.978v0l-14.995-5.647 1.129-2.997-1.579-0.595-1.634 4.34c0.599 0.283 1.185 0.551 1.759 0.803 0.57 0.244 1.152 0.477 1.745 0.7v0c-1.261 0.079-2.487 0.557-3.681 1.431-1.196 0.881-2.078 2.078-2.648 3.591v0c-0.427 1.135-0.613 2.259-0.558 3.374 0.055 1.115 0.298 2.171 0.729 3.168v0c0.458 1 1.095 1.888 1.912 2.663 0.819 0.769 1.754 1.352 2.807 1.748v0c1.109 0.418 2.213 0.603 3.31 0.556 1.1-0.054 2.136-0.311 3.108-0.773v0c1.007-0.456 1.901-1.083 2.685-1.882 0.777-0.801 1.379-1.769 1.806-2.904v0c0.297-0.788 0.476-1.57 0.538-2.345 0.062-0.776 0.01-1.518-0.154-2.228v0c-0.133-0.64-0.34-1.237-0.622-1.789-0.288-0.555-0.651-1.023-1.091-1.404v0c0.347 0.131 0.682 0.264 1.005 0.4 0.317 0.134 0.611 0.252 0.881 0.354v0l2.837 1.068c1.053 0.396 1.958 0.925 2.717 1.585 0.755 0.651 1.339 1.364 1.753 2.139v0c0.436 0.812 0.684 1.654 0.744 2.525 0.056 0.863-0.073 1.714-0.389 2.553v0c-0.368 0.977-0.899 1.842-1.593 2.595-0.7 0.751-1.457 1.297-2.269 1.64zM252.43 187.06v0c0.316-0.838 0.764-1.58 1.345-2.224 0.581-0.645 1.249-1.149 2.005-1.512v0c0.816-0.369 1.684-0.582 2.605-0.639 0.915-0.059 1.816 0.079 2.705 0.414v0c0.895 0.337 1.659 0.812 2.292 1.425 0.635 0.606 1.114 1.294 1.436 2.063v0c0.354 0.781 0.556 1.62 0.607 2.517 0.051 0.897-0.092 1.793-0.43 2.688v0c-0.335 0.889-0.802 1.652-1.402 2.29-0.594 0.64-1.281 1.137-2.062 1.49v0c-0.781 0.354-1.62 0.556-2.517 0.607-0.895 0.044-1.79-0.102-2.685-0.439v0c-0.864-0.325-1.609-0.782-2.236-1.371-0.627-0.589-1.118-1.274-1.472-2.055v0c-0.388-0.765-0.602-1.601-0.642-2.509-0.044-0.916 0.107-1.831 0.451-2.745z" fill="#0718c4" data-fill-palette-color="primary"></path><path d="M1.123 143.865c0-6.394 5.184-11.578 11.578-11.578 6.394 0 11.578 5.184 11.578 11.578 0 6.394-5.184 11.578-11.578 11.578-6.394 0-11.578-5.184-11.578-11.578z" fill="#0718c4" data-fill-palette-color="primary"></path><path d="M255.721 143.865c0-6.394 5.184-11.578 11.578-11.578 6.394 0 11.578 5.184 11.578 11.578 0 6.394-5.184 11.578-11.578 11.578-6.394 0-11.578-5.184-11.578-11.578z" fill="#0718c4" data-fill-palette-color="primary"></path></g></svg></g></svg></g></svg></g><g></g></svg></g><defs></defs></svg><rect width="280" height="280" fill="none" stroke="none" visibility="hidden"></rect></g></svg></g></svg>